<svg version="1.1" id="Layer_1" xmlns="http://www.w3.org/2000/svg" xmlns:xlink="http://www.w3.org/1999/xlink" x="0px" y="0px"
	 width="100%" viewBox="0 0 597 598" enable-background="new 0 0 597 598" xml:space="preserve">
<path fill="#FFFFFF" opacity="1.000000" stroke="none" 
	d="
M418.000000,599.000000 
	C278.695679,599.000000 139.891373,599.000000 1.043531,599.000000 
	C1.043531,399.737366 1.043531,200.474716 1.043531,1.106032 
	C199.887665,1.106032 398.775421,1.106032 597.831543,1.106032 
	C597.831543,200.333221 597.831543,399.666595 597.831543,599.000000 
	C538.141296,599.000000 478.320648,599.000000 418.000000,599.000000 
M243.979004,173.811462 
	C245.729462,174.045944 247.479462,174.480484 249.230453,174.484421 
	C270.227509,174.531693 291.224670,174.515030 312.221832,174.515289 
	C330.885956,174.515503 349.550262,174.546539 368.213898,174.450073 
	C369.504730,174.443405 370.790649,173.487915 372.077179,172.169876 
	C371.957306,171.515518 371.888672,170.846832 371.710297,170.208847 
	C358.708771,123.710655 351.248688,76.317085 348.706116,28.124846 
	C348.336517,21.119324 347.860199,14.119427 347.373810,6.141455 
	C346.064941,7.733706 345.399963,8.444462 344.844666,9.232506 
	C329.703247,30.720991 314.036926,51.863716 299.568604,73.796631 
	C278.670319,105.476913 260.302948,138.656647 243.979004,173.811462 
M320.912994,233.900421 
	C348.197968,233.900421 375.482941,233.900421 403.070892,233.900421 
	C403.070892,220.928955 403.070892,208.352554 403.070892,195.482300 
	C334.274414,195.482300 265.758606,195.482300 196.933350,195.482300 
	C196.933350,208.301483 196.933350,220.876923 196.933350,233.751831 
	C224.808243,233.751831 252.411743,233.751831 280.627228,234.374969 
	C280.708313,236.366165 280.859711,238.357330 280.860199,240.348541 
	C280.873108,293.493774 280.870453,346.639038 280.870483,399.784271 
	C280.870483,401.712036 280.870514,403.639801 280.870514,405.666077 
	C293.991608,405.666077 306.383087,405.666077 319.129486,405.666077 
	C319.129486,403.359009 319.129517,401.385132 319.129517,399.411255 
	C319.129547,346.099396 319.120697,292.787567 319.165558,239.475754 
	C319.167175,237.567566 319.699097,235.659836 320.912994,233.900421 
M401.509644,254.933304 
	C401.342743,254.969818 401.175873,255.006348 400.081909,254.884552 
	C380.720001,254.939178 361.358063,254.993805 341.028931,255.119247 
	C340.747650,260.174225 340.226013,265.229065 340.222626,270.284241 
	C340.192078,315.849609 340.252441,361.415070 340.038330,407.733887 
	C339.168732,414.450439 336.198608,419.907471 330.354950,424.312347 
	C391.708344,403.918915 453.420898,404.663452 516.639587,420.335297 
	C470.977966,373.118439 433.956848,321.558014 406.234680,262.668915 
	C423.977631,258.959473 441.128021,255.373932 458.278412,251.788391 
	C456.318573,251.115997 454.474670,250.921432 452.683563,251.146667 
	C438.003510,252.992661 423.344757,255.016800 408.647308,256.706696 
	C406.508240,256.952637 404.198547,255.714417 401.509644,254.933304 
M103.998024,318.457733 
	C102.658356,319.130402 101.304794,319.776886 99.981163,320.479767 
	C86.038040,327.883575 73.004944,336.370117 64.293480,350.097473 
	C56.277905,362.728302 56.779877,373.562622 66.478455,384.860199 
	C69.813332,388.744904 73.645950,392.313934 77.696091,395.453125 
	C93.367096,407.599365 111.285721,415.633331 129.516586,422.998718 
	C138.578323,426.659760 147.765396,430.010559 157.016464,433.547852 
	C145.955673,486.370178 138.487762,539.434692 133.758301,592.996033 
	C135.219711,592.057190 136.128281,590.946045 136.980240,589.793152 
	C147.267242,575.872681 157.148483,561.630371 167.906570,548.084412 
	C192.982544,516.510010 221.357071,488.256836 254.493973,465.066315 
	C256.445465,463.700562 259.758545,463.165192 262.126312,463.679199 
	C291.055695,469.959442 319.814697,477.069763 348.837952,482.862183 
	C397.603821,492.594818 446.518799,501.583069 495.392212,510.771881 
	C507.761749,513.097473 520.211304,514.997559 533.101257,517.173706 
	C535.874146,497.048309 538.579590,477.412598 541.336121,457.405945 
	C465.946442,450.064758 391.416779,442.070892 316.031677,430.964020 
	C319.079224,429.525452 320.974701,428.630737 322.870148,427.736023 
	C309.297974,426.911072 296.137909,426.961090 282.978394,426.897675 
	C268.518158,426.827972 260.033539,418.283295 260.031311,403.882935 
	C260.023987,356.219635 260.028137,308.556366 260.027893,260.893066 
	C260.027863,258.967072 260.027863,257.041046 260.027863,254.857452 
	C243.335892,254.857452 227.350998,254.774521 211.370773,255.008743 
	C210.035278,255.028305 208.085190,256.932587 207.517670,258.388794 
	C203.955460,267.528839 200.595810,276.752930 197.413513,286.032990 
	C196.400146,288.988159 195.054932,290.518616 191.755157,291.247894 
	C162.000900,297.823425 132.548264,305.444336 103.998024,318.457733 
z"/>
<path fill="#636365" opacity="1.000000" stroke="none" 
	d="
M104.332253,318.286438 
	C132.548264,305.444336 162.000900,297.823425 191.755157,291.247894 
	C195.054932,290.518616 196.400146,288.988159 197.413513,286.032990 
	C200.595810,276.752930 203.955460,267.528839 207.517670,258.388794 
	C208.085190,256.932587 210.035278,255.028305 211.370773,255.008743 
	C227.350998,254.774521 243.335892,254.857452 260.027863,254.857452 
	C260.027863,257.041046 260.027863,258.967072 260.027893,260.893066 
	C260.028137,308.556366 260.023987,356.219635 260.031311,403.882935 
	C260.033539,418.283295 268.518158,426.827972 282.978394,426.897675 
	C296.137909,426.961090 309.297974,426.911072 322.870148,427.736023 
	C320.974701,428.630737 319.079224,429.525452 316.031677,430.964020 
	C391.416779,442.070892 465.946442,450.064758 541.336121,457.405945 
	C538.579590,477.412598 535.874146,497.048309 533.101257,517.173706 
	C520.211304,514.997559 507.761749,513.097473 495.392212,510.771881 
	C446.518799,501.583069 397.603821,492.594818 348.837952,482.862183 
	C319.814697,477.069763 291.055695,469.959442 262.126312,463.679199 
	C259.758545,463.165192 256.445465,463.700562 254.493973,465.066315 
	C221.357071,488.256836 192.982544,516.510010 167.906570,548.084412 
	C157.148483,561.630371 147.267242,575.872681 136.980240,589.793152 
	C136.128281,590.946045 135.219711,592.057190 133.758301,592.996033 
	C138.487762,539.434692 145.955673,486.370178 157.016464,433.547852 
	C147.765396,430.010559 138.578323,426.659760 129.516586,422.998718 
	C111.285721,415.633331 93.367096,407.599365 77.696091,395.453125 
	C73.645950,392.313934 69.813332,388.744904 66.478455,384.860199 
	C56.779877,373.562622 56.277905,362.728302 64.293480,350.097473 
	C73.004944,336.370117 86.038040,327.883575 99.981163,320.479767 
	C101.304794,319.776886 102.658356,319.130402 104.332253,318.286438 
M147.813812,395.734924 
	C153.161118,397.347198 158.508408,398.959503 163.748322,400.539398 
	C171.924011,370.851105 179.925888,341.793976 188.044464,312.313080 
	C186.914749,312.544678 186.120224,312.635986 185.371140,312.871674 
	C170.468506,317.561035 155.455902,321.936005 140.707245,327.069092 
	C127.681488,331.602509 114.901222,336.868744 104.104897,345.889130 
	C94.657387,353.782562 93.843407,362.518311 102.096024,371.627899 
	C104.411880,374.184235 107.073570,376.785309 110.112549,378.265656 
	C122.327255,384.215515 134.752121,389.733948 147.813812,395.734924 
z"/>
<path fill="#646466" opacity="1.000000" stroke="none" 
	d="
M341.996155,255.048431 
	C361.358063,254.993805 380.720001,254.939178 400.620575,255.124084 
	C401.428772,255.296722 401.698273,255.229843 401.967804,255.162964 
	C404.198547,255.714417 406.508240,256.952637 408.647308,256.706696 
	C423.344757,255.016800 438.003510,252.992661 452.683563,251.146667 
	C454.474670,250.921432 456.318573,251.115997 458.278412,251.788391 
	C441.128021,255.373932 423.977631,258.959473 406.234680,262.668915 
	C433.956848,321.558014 470.977966,373.118439 516.639587,420.335297 
	C453.420898,404.663452 391.708344,403.918915 330.354950,424.312347 
	C336.198608,419.907471 339.168732,414.450439 340.532959,407.237793 
	C341.351715,404.866699 341.956970,402.992004 341.958923,401.116669 
	C342.009521,352.427277 341.997437,303.737854 341.996155,255.048431 
z"/>
<path fill="#33B2FF" opacity="1.000000" stroke="none" 
	d="
M319.983887,233.751892 
	C319.699097,235.659836 319.167175,237.567566 319.165558,239.475754 
	C319.120697,292.787567 319.129547,346.099396 319.129517,399.411255 
	C319.129517,401.385132 319.129486,403.359009 319.129486,405.666077 
	C306.383087,405.666077 293.991608,405.666077 280.870514,405.666077 
	C280.870514,403.639801 280.870483,401.712036 280.870483,399.784271 
	C280.870453,346.639038 280.873108,293.493774 280.860199,240.348541 
	C280.859711,238.357330 280.708313,236.366165 280.200256,233.691895 
	C278.060608,232.676819 276.348724,232.060303 274.635193,232.055725 
	C250.815475,231.992310 226.994736,231.913910 203.176361,232.104935 
	C198.954636,232.138809 197.750946,230.834564 197.901535,226.729156 
	C198.194397,218.744415 198.243988,210.729858 197.888077,202.750259 
	C197.684067,198.176071 199.045685,196.855652 203.695953,196.878769 
	C241.507019,197.066696 279.319427,196.984344 317.131439,196.984344 
	C343.616486,196.984344 370.102478,197.094666 396.585724,196.878052 
	C401.096130,196.841156 402.288300,198.193314 402.107208,202.532181 
	C401.774170,210.513763 401.761414,218.530182 402.111267,226.510330 
	C402.304718,230.923462 400.980438,232.156830 396.541260,232.116074 
	C372.723389,231.897385 348.902252,231.977295 325.082855,232.087723 
	C323.380707,232.095627 321.683441,233.172226 319.983887,233.751892 
z"/>
<path fill="#636365" opacity="1.000000" stroke="none" 
	d="
M244.109421,173.009674 
	C260.302948,138.656647 278.670319,105.476913 299.568604,73.796631 
	C314.036926,51.863716 329.703247,30.720991 344.844666,9.232506 
	C345.399963,8.444462 346.064941,7.733706 347.373810,6.141455 
	C347.860199,14.119427 348.336517,21.119324 348.706116,28.124846 
	C351.248688,76.317085 358.708771,123.710655 371.710297,170.208847 
	C371.888672,170.846832 371.957306,171.515518 371.604095,172.578293 
	C328.790466,172.994354 286.449951,173.002014 244.109421,173.009674 
z"/>
<path fill="#44B8FF" opacity="1.000000" stroke="none" 
	d="
M320.448425,233.826172 
	C321.683441,233.172226 323.380707,232.095627 325.082855,232.087723 
	C348.902252,231.977295 372.723389,231.897385 396.541260,232.116074 
	C400.980438,232.156830 402.304718,230.923462 402.111267,226.510330 
	C401.761414,218.530182 401.774170,210.513763 402.107208,202.532181 
	C402.288300,198.193314 401.096130,196.841156 396.585724,196.878052 
	C370.102478,197.094666 343.616486,196.984344 317.131439,196.984344 
	C279.319427,196.984344 241.507019,197.066696 203.695953,196.878769 
	C199.045685,196.855652 197.684067,198.176071 197.888077,202.750259 
	C198.243988,210.729858 198.194397,218.744415 197.901535,226.729156 
	C197.750946,230.834564 198.954636,232.138809 203.176361,232.104935 
	C226.994736,231.913910 250.815475,231.992310 274.635193,232.055725 
	C276.348724,232.060303 278.060608,232.676819 279.894257,233.380325 
	C252.411743,233.751831 224.808243,233.751831 196.933350,233.751831 
	C196.933350,220.876923 196.933350,208.301483 196.933350,195.482300 
	C265.758606,195.482300 334.274414,195.482300 403.070892,195.482300 
	C403.070892,208.352554 403.070892,220.928955 403.070892,233.900421 
	C375.482941,233.900421 348.197968,233.900421 320.448425,233.826172 
z"/>
<path fill="#5B5B5D" opacity="1.000000" stroke="none" 
	d="
M341.512543,255.083847 
	C341.997437,303.737854 342.009521,352.427277 341.958923,401.116669 
	C341.956970,402.992004 341.351715,404.866699 340.656860,406.861084 
	C340.252441,361.415070 340.192078,315.849609 340.222626,270.284241 
	C340.226013,265.229065 340.747650,260.174225 341.512543,255.083847 
z"/>
<path fill="#58585B" opacity="1.000000" stroke="none" 
	d="
M244.044220,173.410568 
	C286.449951,173.002014 328.790466,172.994354 371.604919,172.980179 
	C370.790649,173.487915 369.504730,174.443405 368.213898,174.450073 
	C349.550262,174.546539 330.885956,174.515503 312.221832,174.515289 
	C291.224670,174.515030 270.227509,174.531693 249.230453,174.484421 
	C247.479462,174.480484 245.729462,174.045944 244.044220,173.410568 
z"/>
<path fill="#5B5B5D" opacity="1.000000" stroke="none" 
	d="
M401.738708,255.048126 
	C401.698273,255.229843 401.428772,255.296722 401.084106,255.203232 
	C401.175873,255.006348 401.342743,254.969818 401.738708,255.048126 
z"/>
<path fill="#FDFDFD" opacity="1.000000" stroke="none" 
	d="
M147.456558,395.573395 
	C134.752121,389.733948 122.327255,384.215515 110.112549,378.265656 
	C107.073570,376.785309 104.411880,374.184235 102.096024,371.627899 
	C93.843407,362.518311 94.657387,353.782562 104.104897,345.889130 
	C114.901222,336.868744 127.681488,331.602509 140.707245,327.069092 
	C155.455902,321.936005 170.468506,317.561035 185.371140,312.871674 
	C186.120224,312.635986 186.914749,312.544678 188.044464,312.313080 
	C179.925888,341.793976 171.924011,370.851105 163.748322,400.539398 
	C158.508408,398.959503 153.161118,397.347198 147.456558,395.573395 
z"/>
</svg>